<svg xmlns="http://www.w3.org/2000/svg" width="22" height="25" viewBox="0 0 22 25"> <g id="Group_45987" data-name="Group 45987" transform="translate(-5.272 -3.5)"> <g id="Group_26689" data-name="Group 26689"> <path id="Path_59312" data-name="Path 59312" d="M16.263,25.119h-8.4A2.1,2.1,0,0,1,5.772,23h0a2.1,2.1,0,0,1,2.087-2.117h2.383" fill="none" stroke="#7b7b7b" stroke-linecap="round" stroke-linejoin="round" stroke-width="1"></path> <path id="Path_59313" data-name="Path 59313" d="M26.755,23" fill="#fff" stroke="#7b7b7b" stroke-linecap="round" stroke-linejoin="round" stroke-width="1"></path> <path id="Path_59314" data-name="Path 59314" d="M12.893,25.119A3.155,3.155,0,0,0,16.263,28" fill="none" stroke="#7b7b7b" stroke-linecap="round" stroke-linejoin="round" stroke-width="1"></path> <path id="Path_59315" data-name="Path 59315" d="M16.272,7.453h0a8.168,8.168,0,0,0-8.108,8.226v5.206" fill="none" stroke="#7b7b7b" stroke-linecap="round" stroke-linejoin="round" stroke-width="1"></path> <path id="Path_59316" data-name="Path 59316" d="M16.263,4a1.73,1.73,0,0,0,0,3.459" fill="none" stroke="#7b7b7b" stroke-linecap="round" stroke-linejoin="round" stroke-width="1"></path> <path id="Path_59317" data-name="Path 59317" d="M16.28,25.119h8.4A2.1,2.1,0,0,0,26.772,23h0a2.1,2.1,0,0,0-2.087-2.117H22.3" fill="none" stroke="#7b7b7b" stroke-linecap="round" stroke-linejoin="round" stroke-width="1"></path> <path id="Path_59318" data-name="Path 59318" d="M19.65,25.119A3.155,3.155,0,0,1,16.28,28" fill="none" stroke="#7b7b7b" stroke-linecap="round" stroke-linejoin="round" stroke-width="1"></path> <path id="Path_59319" data-name="Path 59319" d="M16.272,7.453h0a8.168,8.168,0,0,1,8.108,8.226v5.206" fill="none" stroke="#7b7b7b" stroke-linecap="round" stroke-linejoin="round" stroke-width="1"></path> <path id="Path_59320" data-name="Path 59320" d="M16.28,4a1.73,1.73,0,0,1,0,3.459" fill="none" stroke="#7b7b7b" stroke-linecap="round" stroke-linejoin="round" stroke-width="1"></path> </g> <path id="Path_59321" data-name="Path 59321" d="M15.632,10.868a4.618,4.618,0,0,0-4.585,4.651" fill="none" stroke="#03ae66" stroke-linecap="round" stroke-linejoin="round" stroke-width="1"></path> </g> </svg>
